<svg id="Layer_1" data-name="Layer 1" xmlns="http://www.w3.org/2000/svg" viewBox="0 0 194.2 111.32"><defs><style>.cls-1{fill:#5b57a6;}.cls-10,.cls-2,.cls-4,.cls-6,.cls-8{fill:none;stroke-miterlimit:3.86;stroke-width:0.5px;}.cls-2{stroke:#5b57a6;}.cls-3{fill:#231f20;}.cls-4{stroke:#231f20;}.cls-5{fill:#ed1c24;}.cls-6{stroke:#ed1c24;}.cls-7{fill:#00aeef;}.cls-8{stroke:#00aeef;}.cls-9{fill:#fff200;}.cls-10{stroke:#fff200;}</style></defs><title>TheAdvertisersLogoRGB</title><polygon class="cls-1" points="48.98 2.43 133.48 6.18 133.48 86.93 48.98 86.93 48.98 2.43"/><polygon class="cls-2" points="48.98 2.43 133.48 6.18 133.48 86.93 48.98 86.93 48.98 2.43"/><polygon class="cls-3" points="54.13 7.78 130.38 0.28 126.63 83.28 51.38 84.03 54.13 7.78"/><polygon class="cls-4" points="54.13 7.78 130.38 0.28 126.63 83.28 51.38 84.03 54.13 7.78"/><polygon class="cls-5" points="86.63 10.78 102.88 10.78 123.63 71.03 109.13 76.53 86.63 10.78"/><polygon class="cls-6" points="86.63 10.78 102.88 10.78 123.63 71.03 109.13 76.53 86.63 10.78"/><polygon class="cls-7" points="146.38 44.78 88.38 44.78 83.63 49.78 147.38 48.28 146.38 44.78"/><polygon class="cls-8" points="146.38 44.78 88.38 44.78 83.63 49.78 147.38 48.28 146.38 44.78"/><polygon class="cls-9" points="90.38 12.53 92.63 16.78 55.88 94.53 51.13 94.53 90.38 12.53"/><polygon class="cls-10" points="90.38 12.53 92.63 16.78 55.88 94.53 51.13 94.53 90.38 12.53"/><path class="cls-3" d="M9.43,119.78c0,0.61,0,.85.61,1a0.3,0.3,0,0,1,.33.24,0.2,0.2,0,0,1-.25.2c-0.53,0-1,0-1.58,0s-1,0-1.48,0a0.2,0.2,0,0,1-.25-0.2,0.27,0.27,0,0,1,.28-0.24c0.68-.11.65-0.29,0.65-1v-4.34c0-.29,0-0.3-0.29-0.3a1.44,1.44,0,0,0-1.36.83,0.72,0.72,0,0,1-.42.36,0.19,0.19,0,0,1-.19-0.23,0.91,0.91,0,0,1,.05-0.23l0.33-1.2a0.35,0.35,0,0,1,.28-0.35,0.19,0.19,0,0,1,.21.15c0.09,0.29.17,0.24,0.45,0.24h3.69a0.72,0.72,0,0,0,.76-0.27,0.3,0.3,0,0,1,.25-0.19c0.24,0,.2.19,0.17,0.37l-0.13,1.32c0,0.17,0,.42-0.23.42a0.38,0.38,0,0,1-.32-0.31,1.08,1.08,0,0,0-1.29-.92c-0.27,0-.28,0-0.28.3v4.35Z" transform="translate(-5.49 -12.09)"/><path class="cls-3" d="M17.77,119.77a1.83,1.83,0,0,0,.07.75,0.69,0.69,0,0,0,.51.22,0.25,0.25,0,0,1,.25.23c0,0.17-.17.19-0.31,0.19l-1.46,0-1.14,0a0.2,0.2,0,0,1-.25-0.19,0.23,0.23,0,0,1,.21-0.23,0.76,0.76,0,0,0,.4-0.17,1.42,1.42,0,0,0,.11-0.79v-1.48c0-.64,0-1.29-0.84-1.29a1.37,1.37,0,0,0-.83.31,0.61,0.61,0,0,0-.16.55v1.9a2.08,2.08,0,0,0,.05.71,0.52,0.52,0,0,0,.33.26c0.14,0,.34,0,0.34.23a0.2,0.2,0,0,1-.25.19l-0.6,0-2,0c-0.13,0-.32,0-0.32-0.19a0.25,0.25,0,0,1,.25-0.23,0.82,0.82,0,0,0,.48-0.17,1.33,1.33,0,0,0,.11-0.79v-4.28c0-.57,0-0.67-0.54-0.75a0.19,0.19,0,0,1-.21-0.15c0-.2.3-0.22,0.44-0.24a6.35,6.35,0,0,0,1.36-.37,1.25,1.25,0,0,1,.38-0.11c0.23,0,.17.35,0.17,0.49v2.47c0,0.05,0,.1.06,0.1a3.8,3.8,0,0,1,1.68-.62,1.92,1.92,0,0,1,1.35.53,1.84,1.84,0,0,1,.36,1.36v1.57Z" transform="translate(-5.49 -12.09)"/><path class="cls-3" d="M20.68,118.27c-0.26,0-.36,0-0.36.26a1.87,1.87,0,0,0,1.78,2,3.42,3.42,0,0,0,1.36-.53,0.15,0.15,0,0,1,.15.15,1.11,1.11,0,0,1-.53.58,3,3,0,0,1-1.71.51,2.47,2.47,0,1,1,.1-4.91,2.62,2.62,0,0,1,1.55.49,1.4,1.4,0,0,1,.64,1.08c0,0.38-.23.39-0.58,0.39H20.68Zm1.16-.44a0.46,0.46,0,0,0,.38-0.51,0.63,0.63,0,0,0-.67-0.65,1.18,1.18,0,0,0-.84.37,1.31,1.31,0,0,0-.29.69c0,0.19.18,0.16,0.34,0.16A6.13,6.13,0,0,0,21.84,117.83Z" transform="translate(-5.49 -12.09)"/><path class="cls-3" d="M29.51,115.08c0.14-.34.15-0.52,0.57-0.52s0.33,0.12.45,0.41l2.12,5a3.17,3.17,0,0,0,.26.53,0.47,0.47,0,0,0,.42.25c0.17,0,.37,0,0.37.21s-0.21.22-.35,0.22c-0.43,0-.84,0-1.25,0s-1,0-1.5,0c-0.14,0-.33,0-0.33-0.22,0-.35.72-0.06,0.72-0.43a1.16,1.16,0,0,0-.1-0.39l-0.33-.83c-0.13-.36-0.1-0.34-0.47-0.34H28.73c-0.36,0-.33,0-0.45.31a3.29,3.29,0,0,0-.23.94c0,0.73,1,.29,1,0.75a0.27,0.27,0,0,1-.34.22l-1,0-1,0c-0.15,0-.32,0-0.32-0.22s0.15-.2.29-0.21a0.59,0.59,0,0,0,.56-0.35c0.13-.25.32-0.78,0.43-1.07l0.57-1.42Zm-0.77,3a1.42,1.42,0,0,0-.09.3c0,0.14.22,0.1,0.31,0.1h0.89c0.07,0,.34,0,0.34-0.08a1.47,1.47,0,0,0-.09-0.26l-0.68-1.76Z" transform="translate(-5.49 -12.09)"/><path class="cls-3" d="M38.92,119.93c0,0.1-.05.41,0.12,0.41s0.34-.38.53-0.38,0.14,0.15.14,0.26c0,0.34,0,.32-0.28.42l-1.39.47a1.79,1.79,0,0,1-.41.11,0.22,0.22,0,0,1-.21-0.25l0-.22s0-.12-0.06-0.12a2.71,2.71,0,0,1-1.48.59,2.22,2.22,0,0,1-2.2-2.35,2.58,2.58,0,0,1,2.69-2.55,2,2,0,0,1,.61.08,1.26,1.26,0,0,0,.34.07v-0.92c0-.39.09-0.72-0.38-0.72-0.13,0-.37,0-0.37-0.21s0.43-.23.58-0.26a4.73,4.73,0,0,0,1.39-.45,0.35,0.35,0,0,1,.18-0.05c0.21,0,.22.29,0.22,0.43v5.63ZM37.32,118a2.06,2.06,0,0,0-.11-0.95,0.78,0.78,0,0,0-.65-0.38c-0.95,0-1.23,1.11-1.23,1.87a1.65,1.65,0,0,0,1.4,1.85,1,1,0,0,0,.6-0.17V118Z" transform="translate(-5.49 -12.09)"/><path class="cls-3" d="M43.67,117.91a2.12,2.12,0,0,0,.23-0.72,0.42,0.42,0,0,0-.46-0.36c-0.13,0-.34,0-0.34-0.19a0.22,0.22,0,0,1,.26-0.21l0.92,0,0.9,0c0.13,0,.29,0,0.29.18a0.24,0.24,0,0,1-.24.22,0.64,0.64,0,0,0-.7.46l-1.69,3.52c-0.13.28-.16,0.41-0.49,0.41s-0.31-.14-0.42-0.39l-1.53-3.26a4.22,4.22,0,0,0-.3-0.55,0.55,0.55,0,0,0-.36-0.19c-0.14,0-.33,0-0.33-0.19s0.2-.21.35-0.21l1.21,0,1.35,0c0.13,0,.33,0,0.33.18s-0.23.21-.37,0.22a0.29,0.29,0,0,0-.33.24,1.21,1.21,0,0,0,.12.37l0.71,1.64a0.54,0.54,0,0,0,.19.3,0.5,0.5,0,0,0,.15-0.27Z" transform="translate(-5.49 -12.09)"/><path class="cls-3" d="M47.4,118.27c-0.26,0-.36,0-0.36.26a1.87,1.87,0,0,0,1.78,2,3.43,3.43,0,0,0,1.36-.53,0.15,0.15,0,0,1,.15.15,1.12,1.12,0,0,1-.53.58,3,3,0,0,1-1.71.51,2.47,2.47,0,1,1,.1-4.91,2.62,2.62,0,0,1,1.55.49,1.4,1.4,0,0,1,.64,1.08c0,0.38-.23.39-0.58,0.39H47.4Zm1.16-.44a0.46,0.46,0,0,0,.38-0.51,0.63,0.63,0,0,0-.67-0.65,1.18,1.18,0,0,0-.84.37,1.31,1.31,0,0,0-.29.69c0,0.19.18,0.16,0.34,0.16A6.14,6.14,0,0,0,48.56,117.83Z" transform="translate(-5.49 -12.09)"/><path class="cls-3" d="M53.08,117.1a2.72,2.72,0,0,1,1.45-.78,0.81,0.81,0,1,1,0,1.62c-0.66,0-.73-0.6-1-0.6-0.51,0-.43,1.07-0.43,1.39v1a3.13,3.13,0,0,0,0,.82,0.74,0.74,0,0,0,.56.17,0.25,0.25,0,0,1,.25.21c0,0.18-.19.2-0.32,0.2l-1.3,0-1.28,0c-0.13,0-.31,0-0.31-0.2a0.25,0.25,0,0,1,.25-0.21,0.7,0.7,0,0,0,.51-0.17,3.15,3.15,0,0,0,.07-0.82v-1.51c0-.43,0-0.67-0.45-0.73-0.14,0-.31,0-0.31-0.18s0.33-.21.44-0.25a3,3,0,0,0,1.33-.7,0.43,0.43,0,0,1,.37-0.19c0.16,0,.14.27,0.14,0.37v0.53Z" transform="translate(-5.49 -12.09)"/><path class="cls-3" d="M57.57,119c0,0.38,0,1.39.5,1.39a2.78,2.78,0,0,0,.72-0.3,0.13,0.13,0,0,1,.12.14,0.91,0.91,0,0,1-.29.42,2,2,0,0,1-1.34.52,1.23,1.23,0,0,1-.95-0.43,1.94,1.94,0,0,1-.3-1.14V117.5a3,3,0,0,0,0-.43,0.23,0.23,0,0,0-.25-0.14c-0.13,0-.46.05-0.46-0.11a0.42,0.42,0,0,1,.33-0.28A2.72,2.72,0,0,0,57,115.42a0.51,0.51,0,0,1,.35-0.34c0.22,0,.18.24,0.18,0.38v0.71c0,0.29.06,0.28,0.33,0.28h0.53c0.22,0,.37-0.05.37,0.2s-0.07.28-.35,0.28h-0.5c-0.34,0-.34,0-0.34.4V119Z" transform="translate(-5.49 -12.09)"/><path class="cls-3" d="M61.35,119.74a3.13,3.13,0,0,0,0,.82,0.74,0.74,0,0,0,.56.17,0.25,0.25,0,0,1,.25.21c0,0.18-.18.2-0.32,0.2l-1.3,0-1.27,0c-0.13,0-.31,0-0.31-0.2a0.25,0.25,0,0,1,.25-0.21,0.7,0.7,0,0,0,.51-0.17,3.15,3.15,0,0,0,.07-0.82v-1.51c0-.43,0-0.67-0.45-0.73-0.14,0-.31,0-0.31-0.18s0.33-.21.44-0.25a3,3,0,0,0,1.33-.7,0.44,0.44,0,0,1,.37-0.19c0.16,0,.14.27,0.14,0.37v3.18Zm-1.69-4.69a0.85,0.85,0,0,1,.91-0.79,0.82,0.82,0,0,1,.91.78,0.86,0.86,0,0,1-.93.84A0.83,0.83,0,0,1,59.66,115.05Z" transform="translate(-5.49 -12.09)"/><path class="cls-3" d="M62.37,119.95c0-.17,0-0.36.23-0.36,0.45,0,.33,1.28,1.67,1.28a0.91,0.91,0,0,0,1-.65,1,1,0,0,0-.84-0.77c-0.77-.24-2.06-0.6-2.06-1.57s1.15-1.55,2.07-1.55a6.78,6.78,0,0,1,1.42.19c0.28,0.06.3,0.11,0.3,0.4v0.25c0,0.14,0,.46-0.23.46a0.54,0.54,0,0,1-.35-0.25,1.15,1.15,0,0,0-1.07-.7,0.71,0.71,0,0,0-.83.56,0.84,0.84,0,0,0,.75.58L65,118a1.64,1.64,0,0,1,1.47,1.45,1.67,1.67,0,0,1-.77,1.37,2.87,2.87,0,0,1-1.62.42,3.18,3.18,0,0,1-1.45-.3,0.47,0.47,0,0,1-.27-0.55Z" transform="translate(-5.49 -12.09)"/><path class="cls-3" d="M69,118.27c-0.26,0-.36,0-0.36.26a1.87,1.87,0,0,0,1.78,2,3.43,3.43,0,0,0,1.36-.53,0.15,0.15,0,0,1,.15.15,1.11,1.11,0,0,1-.53.58,3,3,0,0,1-1.71.51,2.46,2.46,0,1,1,1.65-4.42,1.4,1.4,0,0,1,.64,1.08c0,0.38-.23.39-0.58,0.39H69Zm1.16-.44a0.46,0.46,0,0,0,.38-0.51,0.63,0.63,0,0,0-.67-0.65A1.18,1.18,0,0,0,69,117a1.31,1.31,0,0,0-.29.69c0,0.19.19,0.16,0.34,0.16A6.15,6.15,0,0,0,70.15,117.83Z" transform="translate(-5.49 -12.09)"/><path class="cls-3" d="M74.66,117.1a2.71,2.71,0,0,1,1.45-.78,0.81,0.81,0,1,1,0,1.62c-0.66,0-.73-0.6-1-0.6-0.51,0-.43,1.07-0.43,1.39v1a3.12,3.12,0,0,0,0,.82,0.74,0.74,0,0,0,.56.17,0.25,0.25,0,0,1,.25.21c0,0.18-.18.2-0.32,0.2l-1.29,0-1.27,0c-0.13,0-.31,0-0.31-0.2a0.25,0.25,0,0,1,.25-0.21,0.7,0.7,0,0,0,.51-0.17,3.13,3.13,0,0,0,.07-0.82v-1.51c0-.43,0-0.67-0.45-0.73-0.14,0-.31,0-0.31-0.18s0.33-.21.44-0.25a3,3,0,0,0,1.33-.7,0.44,0.44,0,0,1,.37-0.19c0.16,0,.14.27,0.14,0.37v0.53Z" transform="translate(-5.49 -12.09)"/><path class="cls-3" d="M77.17,119.95c0-.17,0-0.36.23-0.36,0.45,0,.33,1.28,1.67,1.28a0.91,0.91,0,0,0,1-.65,1,1,0,0,0-.84-0.77c-0.77-.24-2.06-0.6-2.06-1.57s1.15-1.55,2.07-1.55a6.78,6.78,0,0,1,1.42.19c0.28,0.06.3,0.11,0.3,0.4v0.25c0,0.14,0,.46-0.23.46a0.54,0.54,0,0,1-.35-0.25,1.16,1.16,0,0,0-1.07-.7,0.71,0.71,0,0,0-.83.56,0.84,0.84,0,0,0,.75.58L79.79,118a1.64,1.64,0,0,1,1.47,1.45,1.67,1.67,0,0,1-.77,1.37,2.87,2.87,0,0,1-1.63.42,3.18,3.18,0,0,1-1.45-.3,0.47,0.47,0,0,1-.27-0.55Z" transform="translate(-5.49 -12.09)"/><path class="cls-3" d="M85.48,116.12c0-.61.07-0.89-0.59-1-0.13,0-.33,0-0.33-0.19a0.21,0.21,0,0,1,.25-0.22c0.43,0,.88,0,1.32,0,0.74,0,1.48,0,2.21,0a2.72,2.72,0,0,1,1.55.34,1.66,1.66,0,0,1,.8,1.46,2.12,2.12,0,0,1-.54,1.37,1.93,1.93,0,0,1-1.49.62,2.59,2.59,0,0,1-.79-0.13,2.86,2.86,0,0,0-.57-0.15c-0.18,0-.12.15-0.12,0.28v1.27c0,0.61,0,.85.61,1a0.3,0.3,0,0,1,.33.24,0.2,0.2,0,0,1-.25.2c-0.53,0-1,0-1.58,0s-1,0-1.48,0c-0.14,0-.25,0-0.25-0.2a0.27,0.27,0,0,1,.28-0.24c0.68-.11.65-0.29,0.65-1v-3.66Zm1.7,1.28a0.57,0.57,0,0,0,.06.37,1.06,1.06,0,0,0,.57.14A1.23,1.23,0,0,0,89,116.5a1.3,1.3,0,0,0-1.21-1.38,0.48,0.48,0,0,0-.53.31,3.6,3.6,0,0,0,0,.88v1.09Z" transform="translate(-5.49 -12.09)"/><path class="cls-3" d="M93.16,117.1a2.71,2.71,0,0,1,1.45-.78,0.81,0.81,0,1,1,0,1.62c-0.66,0-.73-0.6-1-0.6-0.51,0-.43,1.07-0.43,1.39v1a3.11,3.11,0,0,0,0,.82,0.74,0.74,0,0,0,.56.17A0.25,0.25,0,0,1,94,121c0,0.18-.18.2-0.32,0.2l-1.3,0-1.28,0c-0.13,0-.31,0-0.31-0.2a0.25,0.25,0,0,1,.25-0.21,0.7,0.7,0,0,0,.51-0.17,3.13,3.13,0,0,0,.07-0.82v-1.51c0-.43,0-0.67-0.45-0.73-0.14,0-.31,0-0.31-0.18s0.33-.21.44-0.25a3,3,0,0,0,1.33-.7,0.44,0.44,0,0,1,.37-0.19c0.16,0,.14.27,0.14,0.37v0.53Z" transform="translate(-5.49 -12.09)"/><path class="cls-3" d="M97.95,119.74a3.16,3.16,0,0,0,0,.82,0.74,0.74,0,0,0,.55.17,0.26,0.26,0,0,1,.25.21c0,0.18-.19.2-0.32,0.2l-1.29,0-1.28,0c-0.14,0-.31,0-0.31-0.2a0.25,0.25,0,0,1,.25-0.21,0.71,0.71,0,0,0,.52-0.17,3.09,3.09,0,0,0,.07-0.82v-1.51c0-.43,0-0.67-0.46-0.73-0.14,0-.31,0-0.31-0.18s0.33-.21.45-0.25a3,3,0,0,0,1.33-.7,0.44,0.44,0,0,1,.37-0.19c0.16,0,.14.27,0.14,0.37v3.18Zm-1.69-4.69a0.86,0.86,0,0,1,.92-0.79,0.82,0.82,0,0,1,.9.78,0.86,0.86,0,0,1-.92.84A0.84,0.84,0,0,1,96.26,115.05Z" transform="translate(-5.49 -12.09)"/><path class="cls-3" d="M101.25,117a3.15,3.15,0,0,1,1.68-.7,2,2,0,0,1,1.3.42,1.42,1.42,0,0,1,.42,1.29v1.72a1.56,1.56,0,0,0,.1.82,0.8,0.8,0,0,0,.48.17,0.26,0.26,0,0,1,.25.23c0,0.17-.19.19-0.32,0.19l-1.09,0-1.42,0a0.19,0.19,0,0,1-.24-0.19,0.23,0.23,0,0,1,.21-0.23,0.66,0.66,0,0,0,.43-0.23,1.9,1.9,0,0,0,.07-0.77v-1.51a1.92,1.92,0,0,0-.17-0.89,0.82,0.82,0,0,0-.7-0.37,1.27,1.27,0,0,0-.77.3,0.84,0.84,0,0,0-.23.8v1.68a1.89,1.89,0,0,0,.07.77,0.66,0.66,0,0,0,.43.23,0.23,0.23,0,0,1,.21.23,0.19,0.19,0,0,1-.24.19l-1.42,0-1.09,0c-0.13,0-.32,0-0.32-0.19a0.25,0.25,0,0,1,.25-0.23,0.8,0.8,0,0,0,.48-0.17,1.55,1.55,0,0,0,.1-0.82v-1.51c0-.43,0-0.67-0.45-0.73-0.14,0-.31,0-0.31-0.18s0.33-.21.44-0.25a3,3,0,0,0,1.33-.7,0.44,0.44,0,0,1,.37-0.19c0.17,0,.15.27,0.15,0.37V117Z" transform="translate(-5.49 -12.09)"/><path class="cls-3" d="M107.73,119c0,0.38,0,1.39.5,1.39a2.81,2.81,0,0,0,.72-0.3,0.13,0.13,0,0,1,.12.14,0.91,0.91,0,0,1-.29.42,2,2,0,0,1-1.34.52,1.22,1.22,0,0,1-.95-0.43,1.94,1.94,0,0,1-.3-1.14V117.5a3.19,3.19,0,0,0,0-.43,0.23,0.23,0,0,0-.25-0.14c-0.13,0-.46.05-0.46-0.11a0.41,0.41,0,0,1,.33-0.28,2.73,2.73,0,0,0,1.37-1.12,0.5,0.5,0,0,1,.35-0.34c0.22,0,.17.24,0.17,0.38v0.71c0,0.29.06,0.28,0.33,0.28h0.53c0.22,0,.37-0.05.37,0.2s-0.07.28-.35,0.28h-0.5c-0.34,0-.34,0-0.34.4V119Z" transform="translate(-5.49 -12.09)"/><path class="cls-3" d="M111.51,119.74a3.11,3.11,0,0,0,0,.82,0.74,0.74,0,0,0,.56.17,0.25,0.25,0,0,1,.25.21c0,0.18-.19.2-0.32,0.2l-1.29,0-1.28,0c-0.13,0-.31,0-0.31-0.2a0.24,0.24,0,0,1,.25-0.21,0.7,0.7,0,0,0,.51-0.17,3.15,3.15,0,0,0,.07-0.82v-1.51c0-.43,0-0.67-0.45-0.73-0.14,0-.31,0-0.31-0.18s0.33-.21.44-0.25a3,3,0,0,0,1.33-.7,0.43,0.43,0,0,1,.37-0.19c0.16,0,.14.27,0.14,0.37v3.18Zm-1.69-4.69a0.85,0.85,0,0,1,.92-0.79,0.82,0.82,0,0,1,.9.78,0.86,0.86,0,0,1-.93.84A0.83,0.83,0,0,1,109.82,115.05Z" transform="translate(-5.49 -12.09)"/><path class="cls-3" d="M114.82,117a3.15,3.15,0,0,1,1.68-.7,2,2,0,0,1,1.3.42,1.42,1.42,0,0,1,.42,1.29v1.72a1.56,1.56,0,0,0,.1.82,0.8,0.8,0,0,0,.48.17,0.25,0.25,0,0,1,.25.23c0,0.17-.19.19-0.32,0.19l-1.09,0-1.42,0A0.19,0.19,0,0,1,116,121a0.23,0.23,0,0,1,.21-0.23,0.66,0.66,0,0,0,.43-0.23,1.87,1.87,0,0,0,.07-0.77v-1.51a1.91,1.91,0,0,0-.18-0.89,0.82,0.82,0,0,0-.7-0.37,1.27,1.27,0,0,0-.77.3,0.84,0.84,0,0,0-.24.8v1.68a1.89,1.89,0,0,0,.07.77,0.66,0.66,0,0,0,.43.23,0.23,0.23,0,0,1,.21.23,0.19,0.19,0,0,1-.24.19l-1.42,0-1.09,0c-0.13,0-.32,0-0.32-0.19a0.26,0.26,0,0,1,.25-0.23,0.8,0.8,0,0,0,.48-0.17,1.56,1.56,0,0,0,.1-0.82v-1.51c0-.43,0-0.67-0.45-0.73-0.14,0-.31,0-0.31-0.18s0.33-.21.44-0.25a3,3,0,0,0,1.33-.7,0.44,0.44,0,0,1,.37-0.19c0.17,0,.14.27,0.14,0.37V117Z" transform="translate(-5.49 -12.09)"/><path class="cls-3" d="M119.68,120.52a0.68,0.68,0,0,1-.25-0.32,0.61,0.61,0,0,1,.47-0.33l0.41-.17a0.63,0.63,0,0,0,.3-0.14,0.28,0.28,0,0,0-.13-0.07,1.56,1.56,0,0,1-1.15-1.44,1.61,1.61,0,0,1,.76-1.32,2.89,2.89,0,0,1,1.62-.42,3.27,3.27,0,0,1,1.29.24,1.14,1.14,0,0,0,.55.13h0.61c0.31,0,.41,0,0.41.32s-0.07.22-.34,0.22h-0.36s-0.05,0-.05,0a1.3,1.3,0,0,1,.26.77,1.91,1.91,0,0,1-2,1.67H121.5c-0.11,0-.57,0-0.57.21a0.4,0.4,0,0,0,.27.25,2,2,0,0,0,.61.05h0.78a3.42,3.42,0,0,1,1.25.16,1.2,1.2,0,0,1,.77,1.12,1.78,1.78,0,0,1-1,1.47,3.88,3.88,0,0,1-1.92.43c-0.78,0-2.48-.17-2.48-1.23,0-.82,1.15-0.84,1.15-1a0.66,0.66,0,0,0-.21-0.22Zm3.6,1.66c0-.62-0.82-0.54-1.24-0.54a3.53,3.53,0,0,1-1.33-.26,0.5,0.5,0,0,0-.2.09,0.66,0.66,0,0,0-.19.45c0,0.87.88,1.1,1.58,1.1C122.42,123,123.28,122.83,123.28,122.18Zm-0.74-4c0-.57-0.09-1.5-0.84-1.5s-0.8.66-.8,1.22,0.12,1.47.87,1.47S122.54,118.69,122.54,118.16Z" transform="translate(-5.49 -12.09)"/><path class="cls-3" d="M135.43,120a0.6,0.6,0,0,1-.33.66,3.87,3.87,0,0,1-2,.47,4.65,4.65,0,0,1-2.7-.76,3.28,3.28,0,0,1-1.3-2.55,3.2,3.2,0,0,1,1.33-2.55,5,5,0,0,1,2.89-.86,6.06,6.06,0,0,1,1.54.22c0.28,0.08.28,0.12,0.33,0.41l0.08,0.52a1.5,1.5,0,0,1,0,.3,0.17,0.17,0,0,1-.2.18c-0.47,0-.5-1.22-1.89-1.22a2.14,2.14,0,0,0-1.7.93,3.52,3.52,0,0,0-.57,2,3.76,3.76,0,0,0,.51,2,2.08,2.08,0,0,0,1.75,1,1.72,1.72,0,0,0,1.08-.39,3,3,0,0,0,.68-0.95,0.29,0.29,0,0,1,.26-0.22c0.22,0,.21.24,0.2,0.39Z" transform="translate(-5.49 -12.09)"/><path class="cls-3" d="M135.87,118.6a2.73,2.73,0,0,1,2.91-2.46,3.14,3.14,0,0,1,1.91.6,2.27,2.27,0,0,1,.95,1.78,2.74,2.74,0,0,1-2.94,2.53A2.58,2.58,0,0,1,135.87,118.6Zm4.12,0.17a3.59,3.59,0,0,0-.32-1.5,1.25,1.25,0,0,0-1-.77c-0.88,0-1.15,1.14-1.15,1.83s0.33,2.37,1.36,2.37S140,119.44,140,118.76Z" transform="translate(-5.49 -12.09)"/><path class="cls-3" d="M144.39,116.71a3.47,3.47,0,0,1,1.59-.57,1.72,1.72,0,0,1,1.28.5,0.44,0.44,0,0,0,.15.13,3.41,3.41,0,0,1,1.58-.64,2.24,2.24,0,0,1,1.35.41,1.46,1.46,0,0,1,.46,1.36v1.66a1.56,1.56,0,0,0,.1.82,0.8,0.8,0,0,0,.48.17,0.25,0.25,0,0,1,.25.23c0,0.17-.19.18-0.32,0.18l-1.09,0-1.42,0a0.19,0.19,0,0,1-.24-0.18,0.23,0.23,0,0,1,.2-0.23,0.66,0.66,0,0,0,.43-0.23,1.89,1.89,0,0,0,.07-0.77v-1.41a2.83,2.83,0,0,0-.09-0.95,0.83,0.83,0,0,0-.75-0.44,0.92,0.92,0,0,0-.79.34,1.29,1.29,0,0,0-.05.57v1.89a1.9,1.9,0,0,0,.07.77,0.64,0.64,0,0,0,.43.23,0.23,0.23,0,0,1,.21.23,0.2,0.2,0,0,1-.24.18l-1.38,0-1.07,0a0.2,0.2,0,0,1-.25-0.18,0.23,0.23,0,0,1,.21-0.23,0.82,0.82,0,0,0,.4-0.17,1.57,1.57,0,0,0,.09-0.82V118c0-.59-0.05-1.27-0.79-1.27a1,1,0,0,0-.76.32,1.16,1.16,0,0,0-.13.76v1.72a1.9,1.9,0,0,0,.07.77,0.67,0.67,0,0,0,.43.23,0.23,0.23,0,0,1,.21.23,0.19,0.19,0,0,1-.24.18l-1.42,0-1.09,0c-0.13,0-.32,0-0.32-0.18a0.25,0.25,0,0,1,.25-0.23,0.8,0.8,0,0,0,.48-0.17,1.56,1.56,0,0,0,.1-0.82v-1.51c0-.43,0-0.67-0.45-0.73-0.14,0-.31,0-0.31-0.17s0.33-.22.44-0.25a3,3,0,0,0,1.33-.7,0.44,0.44,0,0,1,.37-0.19c0.16,0,.14.27,0.14,0.37v0.32Z" transform="translate(-5.49 -12.09)"/><path class="cls-3" d="M154.19,116.74a0.4,0.4,0,0,0,.19-0.09l0.23-.15a1.56,1.56,0,0,1,1-.35,2.25,2.25,0,0,1,2.22,2.32,2.53,2.53,0,0,1-2.56,2.58,3.1,3.1,0,0,1-.86-0.13,0.83,0.83,0,0,0-.15,0c-0.11,0-.07.24-0.07,0.33v1.19a0.51,0.51,0,0,0,.57.45,0.3,0.3,0,0,1,.33.24c0,0.16-.1.17-0.24,0.17l-1.44,0-1.48,0c-0.14,0-.25,0-0.25-0.17a0.25,0.25,0,0,1,.28-0.24c0.63-.07.63-0.42,0.63-0.45v-4.35c0-.43,0-0.7-0.41-0.73-0.14,0-.31,0-0.31-0.17s0.33-.22.44-0.25a3.38,3.38,0,0,0,1.47-.7A0.41,0.41,0,0,1,154,116c0.16,0,.14.27,0.14,0.37v0.35Zm0,2.75c0,0.53,0,1.16.7,1.16,1,0,1.31-1.07,1.31-1.86s-0.33-1.94-1.28-1.94a0.9,0.9,0,0,0-.67.32,1.2,1.2,0,0,0-.06.62v1.71Z" transform="translate(-5.49 -12.09)"/><path class="cls-3" d="M162.71,119.53c0,0.15-.05.64,0.24,0.64a0.39,0.39,0,0,0,.26-0.1,0.73,0.73,0,0,1,.25-0.12,0.14,0.14,0,0,1,.13.14,0.64,0.64,0,0,1-.27.39,1.78,1.78,0,0,1-1.13.47,0.73,0.73,0,0,1-.76-0.49,0.38,0.38,0,0,0-.17-0.24,3.17,3.17,0,0,1-1.78.82,1,1,0,0,1-1.07-1,1.15,1.15,0,0,1,.55-1,4.6,4.6,0,0,1,1.18-.55,3.25,3.25,0,0,0,1-.47,0.29,0.29,0,0,0,.11-0.1v-0.34c0-.35.07-1.07-0.46-1.07a0.91,0.91,0,0,0-.74.65,0.72,0.72,0,0,1-.44.5,2.19,2.19,0,0,1-.84.23,0.27,0.27,0,0,1-.32-0.24,1.64,1.64,0,0,1,.7-1,3.36,3.36,0,0,1,1.92-.54,2.74,2.74,0,0,1,1.32.29,0.88,0.88,0,0,1,.35.86v2.24Zm-1.48-.68a0.51,0.51,0,0,0-.11-0.43,4.35,4.35,0,0,0-.74.4,0.93,0.93,0,0,0-.54.78,0.56,0.56,0,0,0,.55.6,0.94,0.94,0,0,0,.74-0.39,1,1,0,0,0,.1-0.46v-0.49Z" transform="translate(-5.49 -12.09)"/><path class="cls-3" d="M166,116.84a3.17,3.17,0,0,1,1.69-.7,2,2,0,0,1,1.29.42,1.42,1.42,0,0,1,.42,1.29v1.72a1.56,1.56,0,0,0,.1.82,0.79,0.79,0,0,0,.48.17,0.25,0.25,0,0,1,.25.23c0,0.17-.18.18-0.32,0.18l-1.09,0-1.42,0a0.19,0.19,0,0,1-.24-0.18,0.23,0.23,0,0,1,.21-0.23,0.67,0.67,0,0,0,.43-0.23,1.89,1.89,0,0,0,.07-0.77v-1.51a1.89,1.89,0,0,0-.18-0.89,0.81,0.81,0,0,0-.7-0.37,1.27,1.27,0,0,0-.77.3,0.84,0.84,0,0,0-.24.8v1.68a1.92,1.92,0,0,0,.07.77,0.67,0.67,0,0,0,.43.23,0.23,0.23,0,0,1,.21.23,0.19,0.19,0,0,1-.24.18l-1.42,0L164,121c-0.13,0-.32,0-0.32-0.18a0.25,0.25,0,0,1,.25-0.23,0.8,0.8,0,0,0,.48-0.17,1.57,1.57,0,0,0,.1-0.82v-1.51c0-.43,0-0.67-0.45-0.73-0.14,0-.31,0-0.31-0.17s0.33-.22.44-0.25a3,3,0,0,0,1.33-.7,0.44,0.44,0,0,1,.37-0.19c0.16,0,.14.27,0.14,0.37v0.45Z" transform="translate(-5.49 -12.09)"/><path class="cls-3" d="M174.63,117.38a1.11,1.11,0,0,0,.12-0.41,0.41,0.41,0,0,0-.46-0.32c-0.15,0-.39,0-0.39-0.24s0.21-.17.33-0.17l0.88,0,0.88,0c0.13,0,.27,0,0.27.17a0.26,0.26,0,0,1-.29.24,0.59,0.59,0,0,0-.51.24,4.67,4.67,0,0,0-.48.9l-1.55,3.29-0.56,1.34c-0.21.61-.16,0.76-0.84,0.76-0.45,0-.91,0-0.91-0.58a1,1,0,0,1,.13-0.51,0.63,0.63,0,0,1,.61-0.16,0.79,0.79,0,0,0,.77-0.18,1,1,0,0,0,.22-0.49,1.67,1.67,0,0,0-.2-0.57l-1.52-3.08a5,5,0,0,0-.45-0.76,0.51,0.51,0,0,0-.42-0.2,0.27,0.27,0,0,1-.3-0.23c0-.17.2-0.17,0.35-0.17l1.38,0,1.2,0c0.13,0,.37,0,0.37.17a0.27,0.27,0,0,1-.27.23c-0.13,0-.4,0-0.4.25a1.42,1.42,0,0,0,.17.45l0.76,1.58a0.71,0.71,0,0,0,.22.32,0.5,0.5,0,0,0,.22-0.33Z" transform="translate(-5.49 -12.09)"/><path class="cls-3" d="M176.82,120.87a0.67,0.67,0,0,1-.32-0.6,0.75,0.75,0,0,1,.8-0.74,1.11,1.11,0,0,1,1,1.14,2.11,2.11,0,0,1-.75,1.55,1.67,1.67,0,0,1-.72.43,0.12,0.12,0,0,1-.13-0.13,0.63,0.63,0,0,1,.28-0.33,1.62,1.62,0,0,0,.64-1c0-.24-0.1-0.29-0.34-0.27A0.74,0.74,0,0,1,176.82,120.87Z" transform="translate(-5.49 -12.09)"/><path class="cls-3" d="M184.45,119.61c0,0.61,0,.85.61,1a0.3,0.3,0,0,1,.33.24,0.2,0.2,0,0,1-.25.2c-0.53,0-1,0-1.58,0s-1,0-1.48,0a0.2,0.2,0,0,1-.25-0.2,0.27,0.27,0,0,1,.28-0.24c0.68-.11.65-0.29,0.65-1V116c0-.63.06-0.89-0.6-1-0.12,0-.33,0-0.33-0.21s0.1-.2.25-0.2c0.53,0,1,0,1.58,0s1,0,1.47,0c0.14,0,.26,0,0.26.2a0.26,0.26,0,0,1-.29.21c-0.7.11-.65,0.32-0.65,1v3.65Z" transform="translate(-5.49 -12.09)"/><path class="cls-3" d="M188,116.84a3.15,3.15,0,0,1,1.69-.7,2,2,0,0,1,1.3.42,1.42,1.42,0,0,1,.42,1.29v1.72a1.56,1.56,0,0,0,.1.82,0.8,0.8,0,0,0,.48.17,0.26,0.26,0,0,1,.25.23c0,0.17-.19.18-0.32,0.18l-1.09,0-1.42,0a0.19,0.19,0,0,1-.24-0.18,0.23,0.23,0,0,1,.21-0.23,0.66,0.66,0,0,0,.43-0.23,1.89,1.89,0,0,0,.07-0.77v-1.51a1.91,1.91,0,0,0-.17-0.89,0.82,0.82,0,0,0-.7-0.37,1.27,1.27,0,0,0-.77.3,0.84,0.84,0,0,0-.24.8v1.68a1.9,1.9,0,0,0,.07.77,0.67,0.67,0,0,0,.43.23,0.23,0.23,0,0,1,.21.23,0.19,0.19,0,0,1-.24.18l-1.42,0L186,121c-0.13,0-.32,0-0.32-0.18a0.26,0.26,0,0,1,.25-0.23,0.8,0.8,0,0,0,.48-0.17,1.58,1.58,0,0,0,.1-0.82v-1.51c0-.43,0-0.67-0.45-0.73-0.14,0-.31,0-0.31-0.17s0.33-.22.44-0.25a3,3,0,0,0,1.33-.7,0.43,0.43,0,0,1,.37-0.19c0.16,0,.14.27,0.14,0.37v0.45Z" transform="translate(-5.49 -12.09)"/><path class="cls-3" d="M195.26,116.52a1.23,1.23,0,0,0-.82.45,2.1,2.1,0,0,0,1.44,3.37A2.68,2.68,0,0,0,197,120a0.13,0.13,0,0,1,.12.12,0.85,0.85,0,0,1-.46.54,3,3,0,0,1-1.57.42,2.52,2.52,0,0,1-2.75-2.47c0-1.57,1.7-2.44,3.12-2.44a2.75,2.75,0,0,1,1.25.28,0.42,0.42,0,0,1,.3.43c0,0.25-.09.94-0.43,0.94a0.85,0.85,0,0,1-.62-0.58A1,1,0,0,0,195.26,116.52Z" transform="translate(-5.49 -12.09)"/><path class="cls-3" d="M197.88,120.29a0.85,0.85,0,0,1,.91-0.8,0.83,0.83,0,0,1,.9.77,0.85,0.85,0,0,1-.93.85A0.82,0.82,0,0,1,197.88,120.29Z" transform="translate(-5.49 -12.09)"/></svg>